<svg width="324" height="324" viewBox="0 0 324 324" fill="none" xmlns="http://www.w3.org/2000/svg">
<path d="M63.309 176.985C62.7909 177.103 62.352 177.288 61.9924 177.54C61.6203 177.785 61.3163 178.142 61.0803 178.612C60.8421 179.072 60.6534 179.681 60.5142 180.439C60.3727 181.186 60.2672 182.118 60.1979 183.234C60.1196 184.405 59.9818 185.478 59.7844 186.452C59.5769 187.428 59.2849 188.29 58.9085 189.038C58.5321 189.785 58.0463 190.403 57.4513 190.89C56.8562 191.377 56.1269 191.719 55.2634 191.915C54.3999 192.11 53.5624 192.113 52.751 191.923C51.9395 191.733 51.1903 191.369 50.5033 190.831C49.8039 190.284 49.1978 189.583 48.6851 188.727C48.1724 187.872 47.788 186.875 47.532 185.736C47.1572 184.07 47.1596 182.585 47.5391 181.281C47.9061 179.969 48.5341 178.892 49.423 178.05C50.3018 177.21 51.3202 176.659 52.4784 176.396L53.1366 179.323C52.3035 179.512 51.607 179.857 51.047 180.358C50.4768 180.861 50.09 181.514 49.8865 182.319C49.6729 183.126 49.6906 184.083 49.9397 185.191C50.1751 186.237 50.5268 187.066 50.9949 187.675C51.4629 188.285 52.0039 188.696 52.6177 188.909C53.2293 189.113 53.8805 189.136 54.5713 188.979C55.0386 188.873 55.4436 188.68 55.7862 188.4C56.1164 188.111 56.3971 187.722 56.6285 187.231C56.8576 186.731 57.0362 186.124 57.1642 185.412C57.29 184.689 57.377 183.841 57.4253 182.869C57.4974 181.528 57.6491 180.351 57.8803 179.337C58.1114 178.324 58.435 177.46 58.851 176.746C59.2546 176.025 59.7698 175.443 60.3966 175.002C61.011 174.553 61.75 174.231 62.6135 174.035C63.5176 173.83 64.3766 173.828 65.1903 174.028C66.004 174.228 66.7465 174.61 67.4177 175.173C68.0889 175.737 68.6742 176.464 69.1735 177.354C69.6603 178.237 70.0351 179.263 70.2979 180.432C70.5288 181.459 70.6139 182.502 70.5534 183.562C70.4907 184.613 70.2663 185.609 69.8802 186.551C69.4918 187.483 68.936 188.287 68.2126 188.963C67.4769 189.632 66.5553 190.092 65.448 190.343L64.7898 187.416C65.5517 187.243 66.1738 186.948 66.6561 186.529C67.1283 186.112 67.485 185.609 67.7263 185.02C67.9653 184.421 68.098 183.777 68.1245 183.088C68.1385 182.39 68.0655 181.686 67.9055 180.974C67.6747 179.948 67.337 179.111 66.8926 178.464C66.4482 177.817 65.9207 177.371 65.3102 177.125C64.6973 176.868 64.0303 176.822 63.309 176.985Z" fill="white"/>
<path d="M44.4367 169.055L68.4161 168.06L68.5268 170.949L44.5474 171.943L44.4367 169.055ZM59.3565 169.124L59.3557 170.328C58.2001 170.366 57.1267 170.238 56.1356 169.946C55.1341 169.654 54.2575 169.221 53.5058 168.647C52.7542 168.074 52.1646 167.379 51.7372 166.562C51.299 165.736 51.0603 164.813 51.0212 163.793C50.9893 162.96 51.075 162.206 51.2785 161.53C51.4715 160.855 51.8036 160.273 52.2748 159.784C52.7456 159.285 53.3665 158.895 54.1375 158.612C54.8981 158.331 55.8352 158.167 56.9489 158.121L68.0175 157.662L68.1288 160.566L57.029 161.026C56.1443 161.063 55.4416 161.222 54.9208 161.504C54.3895 161.787 54.0138 162.183 53.7936 162.693C53.563 163.203 53.4616 163.822 53.4895 164.551C53.5171 165.269 53.6931 165.918 54.0177 166.499C54.3418 167.07 54.7775 167.557 55.3247 167.962C55.8714 168.356 56.4928 168.659 57.1889 168.87C57.8742 169.071 58.5967 169.156 59.3565 169.124Z" fill="white"/>
<path d="M69.8048 147.446C69.6446 148.612 69.303 149.644 68.7801 150.541C68.2484 151.427 67.5743 152.162 66.7579 152.746C65.9429 153.321 65.015 153.723 63.9741 153.952C62.9332 154.181 61.8242 154.217 60.6471 154.06L59.9966 153.973C58.6337 153.792 57.4481 153.429 56.4399 152.885C55.4214 152.339 54.5879 151.671 53.9396 150.88C53.2912 150.09 52.8362 149.231 52.5748 148.303C52.3133 147.374 52.2471 146.441 52.3762 145.502C52.5407 144.305 52.8891 143.3 53.4212 142.488C53.9548 141.666 54.6316 141.026 55.4516 140.568C56.2613 140.108 57.1854 139.811 58.2238 139.676C59.2519 139.54 60.3546 139.551 61.5316 139.707L62.8172 139.879L61.098 152.386L58.7593 152.074L60.0848 142.431L59.868 142.402C59.1189 142.344 58.3749 142.403 57.6358 142.577C56.8983 142.742 56.2633 143.077 55.731 143.584C55.1986 144.091 54.8651 144.835 54.7304 145.816C54.641 146.466 54.6981 147.083 54.9017 147.667C55.095 148.25 55.4332 148.773 55.9162 149.237C56.3992 149.7 57.013 150.092 57.7576 150.412C58.5022 150.732 59.3805 150.959 60.3924 151.094L61.0429 151.181C61.8379 151.287 62.6014 151.278 63.3333 151.155C64.0563 151.02 64.7102 150.776 65.295 150.423C65.8811 150.06 66.3658 149.594 66.7489 149.025C67.1334 148.446 67.3796 147.764 67.4874 146.98C67.6264 145.968 67.5376 145.084 67.2211 144.328C66.9045 143.571 66.4365 142.883 65.817 142.265L67.4338 140.715C67.9314 141.149 68.3897 141.678 68.8087 142.301C69.2277 142.924 69.5361 143.664 69.7338 144.521C69.9329 145.367 69.9566 146.342 69.8048 147.446Z" fill="white"/>
<path d="M49.2676 128.824L72.1757 135.98L71.2964 138.75L48.3882 131.594L49.2676 128.824ZM59.1634 121.095L64.4637 130.477L67.3022 135.685L64.2932 134.991L61.8161 131.123L58.095 124.46L59.1634 121.095ZM74.5016 128.653L64.9811 131.997L62.9741 129.799L75.5322 125.406L74.5016 128.653Z" fill="white"/>
<path d="M64.714 109.965L66.7118 110.93L62.6977 119.142L60.6999 118.177L64.714 109.965ZM58.3584 113.61L59.6278 111.013L74.7801 118.334C75.2959 118.583 75.724 118.691 76.0644 118.659C76.4048 118.627 76.679 118.505 76.8869 118.293C77.0948 118.081 77.2697 117.83 77.4115 117.54C77.5167 117.325 77.6077 117.091 77.6846 116.839C77.7566 116.573 77.8083 116.372 77.8396 116.237L79.9709 117.25C79.9359 117.487 79.8642 117.788 79.7558 118.152C79.6614 118.511 79.4998 118.925 79.2711 119.393C78.96 120.029 78.5475 120.553 78.0335 120.964C77.5195 121.375 76.8893 121.597 76.1429 121.63C75.3916 121.649 74.5095 121.413 73.4966 120.924L58.3584 113.61Z" fill="white"/>
<path d="M83.3842 108.738L73.4688 96.3723L75.2102 93.8152L87.5693 110.338C87.8267 110.7 88.0807 111.123 88.3313 111.606C88.5964 112.086 88.7989 112.613 88.9387 113.185C89.0785 113.756 89.1024 114.351 89.0102 114.967C88.9326 115.581 88.6768 116.206 88.2429 116.843C88.114 117.033 87.9239 117.256 87.6727 117.514C87.4216 117.772 87.2377 117.949 87.121 118.046L85.1695 116.748C85.2251 116.685 85.307 116.583 85.4153 116.443C85.5381 116.3 85.6201 116.198 85.6611 116.137C86.0305 115.595 86.2708 115.085 86.382 114.607C86.5018 114.135 86.4814 113.656 86.3205 113.171C86.1742 112.682 85.8763 112.148 85.4268 111.568L83.3842 108.738ZM68.8777 103.114L82.2283 106.827L85.1759 107.912L84.8869 110.224L67.1011 105.722L68.8777 103.114Z" fill="white"/>
<path d="M85.4923 75.1629L100.235 92.4898L97.9329 94.4381L83.1905 77.1112L85.4923 75.1629ZM99.3994 76.7998L100.999 78.6801L93.2232 85.2619L91.6234 83.3816L99.3994 76.7998ZM93.948 68.0057L95.5478 69.8859L86.5912 77.4671L84.9914 75.5869L93.948 68.0057Z" fill="white"/>
<path d="M104.622 68.4234L113.671 82.7034L111.214 84.2557L102.165 69.9756L104.622 68.4234ZM99.5791 66.3047C99.3282 65.9088 99.2352 65.4993 99.3001 65.0763C99.3738 64.6478 99.6484 64.2833 100.124 63.9829C100.591 63.688 101.034 63.599 101.453 63.716C101.881 63.8274 102.221 64.0811 102.472 64.477C102.712 64.8554 102.79 65.2616 102.708 65.6957C102.629 66.1154 102.356 66.4727 101.889 66.7676C101.413 67.0681 100.969 67.1642 100.555 67.056C100.144 66.9335 99.8189 66.683 99.5791 66.3047Z" fill="white"/>
<path d="M111.22 56.822L121.953 78.2884L119.353 79.5868L108.62 58.1204L111.22 56.822Z" fill="white"/>
<path d="M125.882 61.8568L129.634 74.8738L126.842 75.682L122.16 59.4371L124.801 58.6723L125.882 61.8568ZM126.545 66.3009L125.241 66.6295C124.931 65.5156 124.78 64.4476 124.789 63.4257C124.795 62.3937 124.973 61.4477 125.321 60.5877C125.669 59.7278 126.199 58.9889 126.91 58.371C127.618 57.7431 128.512 57.2727 129.593 56.9599C130.353 56.7397 131.085 56.647 131.789 56.6818C132.49 56.7066 133.142 56.8812 133.745 57.2054C134.348 57.5297 134.883 58.0145 135.351 58.6599C135.819 59.3052 136.2 60.1384 136.494 61.1593L139.615 71.9842L136.838 72.7881L133.757 62.0983C133.512 61.2475 133.17 60.6089 132.733 60.1824C132.306 59.7531 131.799 59.4986 131.212 59.419C130.623 59.3294 129.978 59.386 129.277 59.5888C128.457 59.8263 127.813 60.1699 127.346 60.6195C126.88 61.0691 126.555 61.5969 126.372 62.2029C126.189 62.809 126.117 63.4641 126.158 64.1681C126.205 64.8593 126.334 65.5702 126.545 66.3009ZM136.625 61.7235L134.928 62.8328C134.681 61.9391 134.58 61.0413 134.623 60.1395C134.677 59.2347 134.881 58.3838 135.237 57.5868C135.603 56.7869 136.132 56.0859 136.826 55.4838C137.517 54.8717 138.378 54.4165 139.408 54.1181C140.279 53.8661 141.082 53.7582 141.819 53.7943C142.566 53.8275 143.239 54.0177 143.837 54.3649C144.443 54.6992 144.973 55.2019 145.427 55.8731C145.88 56.5442 146.254 57.3903 146.549 58.4112L149.625 69.086L146.834 69.8942L143.748 59.1894C143.486 58.2786 143.137 57.6149 142.703 57.1985C142.276 56.7691 141.773 56.5296 141.195 56.4801C140.624 56.4176 139.983 56.4892 139.273 56.6949C138.663 56.8716 138.153 57.1331 137.743 57.4795C137.333 57.8258 137.022 58.2305 136.808 58.6935C136.592 59.1466 136.466 59.6329 136.432 60.1526C136.407 60.6694 136.472 61.193 136.625 61.7235Z" fill="white"/>
<path d="M164.334 52.4884L163.619 69.3795L160.73 69.2677L161.445 52.3766L164.334 52.4884ZM175.419 52.9173L167 62.2862L162.956 62.1297L162.626 59.5838L165.936 59.7119L171.906 52.7814L175.419 52.9173ZM171.597 69.6882L165.707 61.7984L167.653 59.7784L175.266 69.8302L171.597 69.6882Z" fill="white"/>
<path d="M178.104 62.2271L178.184 61.8768C178.456 60.6887 178.88 59.6257 179.458 58.6877C180.039 57.7395 180.74 56.9626 181.562 56.357C182.387 55.7412 183.309 55.3288 184.33 55.1197C185.352 54.9005 186.438 54.9196 187.586 55.177C188.745 55.4367 189.738 55.8834 190.566 56.5172C191.406 57.1431 192.064 57.9097 192.54 58.8171C193.029 59.7166 193.329 60.7178 193.44 61.8209C193.553 62.9138 193.474 64.0542 193.202 65.2423L193.122 65.5926C192.85 66.7807 192.425 67.8437 191.848 68.7817C191.27 69.7197 190.563 70.4955 189.728 71.109C188.906 71.7146 187.983 72.1271 186.961 72.3463C185.951 72.5576 184.867 72.5334 183.708 72.2737C182.549 72.0141 181.555 71.5724 180.725 70.9488C179.898 70.315 179.239 69.5484 178.751 68.6489C178.274 67.7416 177.979 66.7414 177.866 65.6485C177.753 64.5557 177.832 63.4152 178.104 62.2271ZM181.005 62.5089L180.924 62.8592C180.736 63.6817 180.655 64.4802 180.681 65.2546C180.709 66.0188 180.853 66.7235 181.111 67.3685C181.38 68.0158 181.772 68.568 182.287 69.0251C182.805 69.472 183.455 69.7831 184.237 69.9585C185.01 70.1316 185.722 70.1257 186.373 69.9408C187.037 69.748 187.626 69.4156 188.14 68.9436C188.654 68.4717 189.09 67.8969 189.448 67.2192C189.819 66.5336 190.098 65.7796 190.286 64.9571L190.366 64.6068C190.552 63.7944 190.626 63.005 190.587 62.2385C190.561 61.4641 190.414 60.7532 190.145 60.1059C189.889 59.4507 189.504 58.8945 188.988 58.4375C188.483 57.9827 187.839 57.6676 187.057 57.4922C186.284 57.3191 185.566 57.329 184.902 57.5218C184.249 57.7169 183.658 58.0544 183.132 58.5342C182.618 59.0061 182.181 59.586 181.82 60.2738C181.462 60.9515 181.19 61.6965 181.005 62.5089Z" fill="white"/>
<path d="M210.459 63.4618L209.546 65.6714L202.311 62.7228L196.771 76.1394L194.094 75.0484L200.547 59.4222L210.459 63.4618Z" fill="white"/>
<path d="M217.851 67.7L220.303 69.2298L216.719 74.4522C215.811 75.7766 214.918 76.8524 214.04 77.6797C213.162 78.5071 212.305 79.1448 211.469 79.5931C210.638 80.0325 209.828 80.3315 209.039 80.4899C208.259 80.6539 207.508 80.7319 206.787 80.7239L205.567 79.9631L206.891 78.008L207.403 78.309C207.911 78.1472 208.416 77.971 208.917 77.7806C209.424 77.5812 209.951 77.3021 210.497 76.943C211.049 76.5751 211.63 76.0722 212.241 75.4343C212.867 74.7932 213.537 73.9531 214.253 72.9141L217.851 67.7ZM218.461 68.0804L227.091 73.4638L218.082 87.7695L215.629 86.2396L223.215 74.1948L217.037 70.3412L218.461 68.0804ZM206.276 77.6061L221.19 86.9092L217.268 93.1366L214.816 91.6067L217.472 87.3891L207.463 81.1456L204.807 85.3633L202.341 83.8252L206.276 77.6061Z" fill="white"/>
<path d="M230.529 95.1642L236.446 88.7821C236.9 88.2932 237.193 87.7776 237.327 87.2351C237.475 86.692 237.446 86.1413 237.239 85.5828C237.033 85.0243 236.642 84.4805 236.067 83.9513C235.531 83.4574 234.975 83.1151 234.399 82.9244C233.83 82.7408 233.293 82.6922 232.787 82.7784C232.288 82.8717 231.88 83.0902 231.561 83.4339L229.435 81.4758C229.845 81.0328 230.368 80.6994 231.001 80.4757C231.635 80.252 232.329 80.162 233.084 80.2058C233.854 80.2489 234.637 80.4461 235.433 80.7973C236.245 81.1479 237.026 81.669 237.777 82.3605C238.681 83.1931 239.336 84.0797 239.742 85.0203C240.157 85.968 240.272 86.9311 240.089 87.9097C239.921 88.8877 239.409 89.8388 238.552 90.7631L233.197 96.5379C232.815 96.9504 232.442 97.4214 232.079 97.9508C231.724 98.4874 231.463 98.9907 231.297 99.4609L231.127 99.6442L228.909 97.6015C229.028 97.2582 229.245 96.856 229.559 96.3947C229.88 95.9257 230.203 95.5156 230.529 95.1642ZM235.901 90.1062L234.543 91.6169L232.393 89.6377C231.788 89.0802 231.202 88.6324 230.634 88.2942C230.074 87.9484 229.545 87.7228 229.046 87.6174C228.547 87.512 228.079 87.5269 227.641 87.6619C227.21 87.7893 226.818 88.044 226.464 88.4259C226.103 88.8155 225.862 89.2518 225.74 89.7349C225.619 90.218 225.646 90.7174 225.822 91.2329C226.012 91.7479 226.368 92.2453 226.889 92.7251C227.54 93.3248 228.242 93.7166 228.995 93.9002C229.748 94.0839 230.454 94.1112 231.114 93.9821C231.781 93.8601 232.3 93.6225 232.67 93.2694L232.632 95.1253C232.281 95.3967 231.806 95.6178 231.207 95.7887C230.609 95.9595 229.944 96.041 229.212 96.0331C228.496 96.0246 227.756 95.8882 226.992 95.6241C226.243 95.3593 225.532 94.9164 224.857 94.2955C224.014 93.5193 223.427 92.6742 223.096 91.7601C222.772 90.853 222.689 89.9622 222.846 89.0876C223.018 88.2125 223.423 87.4312 224.06 86.7437C224.677 86.0791 225.349 85.6147 226.077 85.3505C226.812 85.0786 227.58 85.0004 228.382 85.1159C229.191 85.2237 230.022 85.5073 230.875 85.9667C231.727 86.4261 232.579 87.0474 233.429 87.8306L235.901 90.1062Z" fill="white"/>
<path d="M254.77 103.553L240.315 112.32L238.813 109.851L253.268 101.083L254.77 103.553ZM260.535 113.031L248.087 111.207L245.984 107.749L247.921 106.063L249.642 108.893L258.708 110.028L260.535 113.031ZM244.464 119.142L247.779 109.858L250.535 110.361L246.372 122.279L244.464 119.142Z" fill="white"/>
<path d="M253.043 132.353L261.164 129.225C261.786 128.985 262.277 128.651 262.637 128.222C263.01 127.799 263.227 127.291 263.289 126.698C263.351 126.105 263.242 125.444 262.961 124.715C262.699 124.034 262.353 123.481 261.921 123.056C261.493 122.64 261.034 122.36 260.542 122.214C260.055 122.078 259.592 122.094 259.155 122.263L258.117 119.565C258.681 119.348 259.296 119.278 259.962 119.357C260.628 119.435 261.29 119.66 261.946 120.032C262.616 120.41 263.23 120.933 263.788 121.6C264.36 122.273 264.829 123.085 265.195 124.038C265.637 125.185 265.831 126.271 265.779 127.296C265.731 128.331 265.408 129.247 264.812 130.046C264.229 130.852 263.349 131.481 262.173 131.934L254.824 134.765C254.299 134.967 253.757 135.226 253.198 135.542C252.643 135.867 252.186 136.205 251.83 136.555L251.597 136.644L250.514 133.83C250.772 133.574 251.144 133.308 251.63 133.032C252.124 132.752 252.596 132.526 253.043 132.353ZM260.09 130.174L258.205 130.934L257.156 128.207C256.861 127.439 256.534 126.778 256.175 126.224C255.827 125.666 255.452 125.23 255.052 124.915C254.652 124.6 254.226 124.407 253.775 124.335C253.333 124.26 252.869 124.316 252.383 124.503C251.887 124.694 251.478 124.98 251.156 125.361C250.834 125.742 250.637 126.203 250.566 126.744C250.509 127.29 250.607 127.894 250.861 128.555C251.179 129.382 251.635 130.044 252.228 130.541C252.821 131.038 253.441 131.374 254.089 131.548C254.74 131.733 255.31 131.748 255.797 131.594L254.943 133.245C254.509 133.335 253.985 133.324 253.374 133.214C252.762 133.103 252.131 132.883 251.479 132.554C250.841 132.23 250.239 131.781 249.672 131.207C249.118 130.639 248.677 129.927 248.348 129.072C247.936 128.002 247.784 126.984 247.892 126.016C248.003 125.057 248.323 124.22 248.85 123.503C249.392 122.792 250.1 122.268 250.975 121.931C251.82 121.606 252.627 121.484 253.396 121.568C254.175 121.647 254.897 121.916 255.564 122.373C256.241 122.827 256.86 123.448 257.42 124.237C257.98 125.026 258.468 125.96 258.883 127.039L260.09 130.174Z" fill="white"/>
<path d="M271.122 149.078L254.52 152.275L253.979 149.435L270.581 146.239L271.122 149.078ZM263.312 149.579L260.98 150.028C260.656 149.497 260.35 148.951 260.063 148.391C259.789 147.839 259.538 147.246 259.311 146.61C259.096 145.984 258.916 145.291 258.772 144.534C258.522 143.224 258.531 142.045 258.798 140.997C259.075 139.946 259.624 139.071 260.445 138.372C261.277 137.671 262.398 137.185 263.81 136.913L268.658 135.98L269.199 138.819L264.351 139.753C263.43 139.93 262.71 140.212 262.19 140.598C261.669 140.985 261.322 141.471 261.147 142.056C260.982 142.639 260.973 143.315 261.119 144.082C261.26 144.819 261.437 145.501 261.652 146.128C261.879 146.763 262.131 147.362 262.408 147.924C262.687 148.496 262.988 149.048 263.312 149.579Z" fill="white"/>
<path d="M254.384 163.174C254.368 161.997 254.552 160.927 254.935 159.962C255.329 159.007 255.886 158.18 256.606 157.481C257.326 156.792 258.184 156.257 259.179 155.876C260.174 155.495 261.265 155.295 262.452 155.275L263.108 155.264C264.483 155.242 265.71 155.425 266.788 155.813C267.876 156.202 268.8 156.739 269.559 157.424C270.318 158.11 270.896 158.892 271.293 159.771C271.69 160.65 271.895 161.563 271.908 162.511C271.924 163.719 271.729 164.764 271.324 165.646C270.919 166.538 270.345 167.272 269.603 167.847C268.871 168.421 268.001 168.852 266.994 169.14C265.998 169.427 264.906 169.58 263.719 169.6L262.422 169.621L262.256 156.997L264.615 156.959L264.743 166.692L264.962 166.688C265.711 166.634 266.438 166.466 267.143 166.184C267.848 165.912 268.426 165.485 268.876 164.905C269.327 164.325 269.546 163.54 269.533 162.55C269.524 161.894 269.376 161.292 269.087 160.745C268.809 160.197 268.397 159.73 267.85 159.343C267.303 158.956 266.638 158.66 265.854 158.454C265.07 158.248 264.167 158.154 263.147 158.17L262.491 158.181C261.689 158.194 260.935 158.316 260.23 158.546C259.535 158.787 258.925 159.125 258.399 159.561C257.874 160.007 257.464 160.54 257.17 161.16C256.876 161.79 256.734 162.5 256.745 163.292C256.758 164.313 256.978 165.174 257.404 165.875C257.83 166.577 258.395 167.187 259.1 167.707L257.733 169.48C257.176 169.124 256.644 168.669 256.136 168.115C255.629 167.561 255.214 166.875 254.89 166.057C254.567 165.25 254.398 164.289 254.384 163.174Z" fill="white"/>
<path d="M255.184 178.987C255.075 179.666 255.115 180.315 255.301 180.935C255.487 181.554 255.793 182.086 256.218 182.531C256.653 182.978 257.18 183.276 257.8 183.424L257.368 186.14C256.388 185.936 255.52 185.459 254.763 184.709C254.016 183.972 253.458 183.068 253.09 181.999C252.733 180.932 252.648 179.807 252.837 178.624C253.036 177.369 253.432 176.308 254.024 175.44C254.614 174.583 255.344 173.905 256.214 173.408C257.083 172.92 258.041 172.599 259.088 172.446C260.145 172.303 261.234 172.319 262.356 172.493L263.004 172.593C264.127 172.767 265.163 173.081 266.114 173.534C267.074 173.998 267.891 174.594 268.567 175.321C269.241 176.057 269.725 176.923 270.02 177.917C270.314 178.922 270.361 180.052 270.161 181.307C269.953 182.613 269.504 183.714 268.813 184.608C268.133 185.504 267.29 186.159 266.285 186.573C265.29 186.998 264.211 187.147 263.05 187.02L263.482 184.304C264.18 184.36 264.834 184.261 265.444 184.007C266.052 183.764 266.567 183.38 266.988 182.855C267.418 182.342 267.693 181.705 267.814 180.943C267.953 180.069 267.895 179.306 267.64 178.656C267.394 178.017 267.005 177.477 266.474 177.036C265.952 176.607 265.348 176.261 264.662 175.997C263.985 175.744 263.281 175.561 262.55 175.448L261.902 175.348C261.171 175.235 260.439 175.195 259.705 175.229C258.972 175.263 258.29 175.405 257.66 175.655C257.028 175.916 256.49 176.312 256.047 176.844C255.612 177.388 255.324 178.103 255.184 178.987Z" fill="white"/>
<path d="M264.943 199.412L248.896 194.093L249.823 191.338L265.87 196.658L264.943 199.412ZM263.134 204.788L260.909 204.05L265.42 190.649L267.645 191.386L263.134 204.788Z" fill="white"/>
<path d="M248.56 212.141L251.215 207.271L253.265 208.341L251.097 212.319C250.668 213.106 250.389 213.802 250.261 214.407C250.128 215.022 250.145 215.546 250.312 215.979C250.479 216.413 250.792 216.753 251.25 217C251.608 217.193 251.962 217.283 252.313 217.271C252.667 217.273 253.014 217.17 253.353 216.962C253.701 216.759 254.038 216.456 254.365 216.052C254.696 215.663 255.023 215.171 255.347 214.576L257.12 211.325L244.302 204.413L245.686 201.875L260.566 209.899L257.41 215.689C256.897 216.631 256.353 217.432 255.779 218.093C255.201 218.764 254.597 219.272 253.969 219.62C253.344 219.982 252.698 220.166 252.03 220.172C251.362 220.179 250.68 219.994 249.983 219.619C249.534 219.376 249.157 219.055 248.854 218.654C248.55 218.254 248.339 217.791 248.222 217.267C248.105 216.742 248.087 216.164 248.17 215.534C248.262 214.909 248.464 214.243 248.778 213.537L248.56 212.141ZM242.014 208.611L245.17 202.821L246.545 205.196L244.077 209.723C243.693 210.427 243.461 211.06 243.381 211.62C243.31 212.186 243.377 212.672 243.583 213.078C243.792 213.499 244.131 213.835 244.599 214.088C245.066 214.34 245.53 214.436 245.989 214.376C246.453 214.33 246.9 214.121 247.328 213.749C247.766 213.381 248.176 212.845 248.56 212.141L250.662 208.286L252.682 209.411L250.057 214.226L248.786 214.73C248.278 215.51 247.7 216.091 247.052 216.476C246.403 216.86 245.738 217.057 245.056 217.068C244.383 217.084 243.744 216.929 243.139 216.602C242.442 216.226 241.9 215.763 241.513 215.211C241.121 214.668 240.88 214.053 240.792 213.366C240.713 212.684 240.774 211.942 240.974 211.139C241.184 210.341 241.53 209.498 242.014 208.611Z" fill="white"/>
<path d="M243.874 221.132L244.153 221.358C245.1 222.125 245.866 222.974 246.451 223.904C247.045 224.841 247.43 225.81 247.607 226.811C247.792 227.82 247.751 228.825 247.484 229.828C247.224 230.838 246.722 231.799 245.977 232.711C245.226 233.63 244.381 234.32 243.442 234.778C242.504 235.252 241.52 235.501 240.492 235.525C239.465 235.565 238.43 235.39 237.389 235.002C236.355 234.621 235.365 234.046 234.418 233.279L234.139 233.053C233.192 232.286 232.426 231.437 231.841 230.507C231.256 229.577 230.873 228.603 230.695 227.587C230.517 226.585 230.559 225.58 230.818 224.57C231.079 223.575 231.586 222.618 232.337 221.698C233.088 220.778 233.929 220.086 234.86 219.62C235.8 219.161 236.783 218.912 237.81 218.873C238.839 218.849 239.87 219.027 240.903 219.409C241.937 219.79 242.927 220.364 243.874 221.132ZM242.325 223.597L242.045 223.371C241.39 222.839 240.708 222.414 240 222.096C239.3 221.783 238.603 221.6 237.907 221.546C237.205 221.5 236.533 221.606 235.892 221.864C235.259 222.129 234.689 222.572 234.182 223.193C233.681 223.806 233.368 224.444 233.244 225.108C233.121 225.786 233.157 226.458 233.351 227.125C233.546 227.793 233.868 228.436 234.318 229.055C234.769 229.688 235.322 230.271 235.977 230.802L236.257 231.028C236.904 231.553 237.581 231.967 238.287 232.271C238.995 232.59 239.7 232.773 240.402 232.819C241.106 232.879 241.778 232.78 242.419 232.522C243.054 232.272 243.625 231.837 244.132 231.215C244.633 230.602 244.945 229.957 245.068 229.279C245.184 228.609 245.145 227.933 244.948 227.251C244.754 226.584 244.427 225.938 243.97 225.312C243.52 224.693 242.972 224.122 242.325 223.597Z" fill="white"/>
<path d="M223.234 261.733L221.279 263.082C220.698 262.243 220.364 261.486 220.277 260.812C220.196 260.146 220.287 259.527 220.549 258.954C220.802 258.387 221.16 257.842 221.622 257.321C222.076 256.805 222.554 256.279 223.057 255.742C223.687 255.079 224.204 254.362 224.607 253.59C225.007 252.833 225.227 251.998 225.266 251.085C225.297 250.177 225.087 249.17 224.637 248.064C224.178 246.963 223.412 245.738 222.339 244.39L221.521 243.209L223.475 241.86L224.294 243.041C225.391 244.625 226.199 246.112 226.718 247.501C227.228 248.895 227.486 250.192 227.492 251.39C227.499 252.588 227.286 253.69 226.856 254.696C226.416 255.708 225.796 256.623 224.995 257.442C224.415 258.032 223.935 258.566 223.556 259.042C223.183 259.528 222.961 259.985 222.89 260.413C222.811 260.848 222.926 261.288 223.234 261.733ZM221.308 252.943C220.399 253.571 219.479 253.971 218.548 254.146C217.617 254.32 216.707 254.296 215.818 254.074C214.93 253.852 214.09 253.445 213.299 252.851C212.505 252.273 211.797 251.534 211.174 250.635L210.978 250.352C210.308 249.385 209.826 248.388 209.534 247.362C209.239 246.351 209.148 245.35 209.261 244.361C209.371 243.386 209.693 242.462 210.228 241.586C210.753 240.717 211.505 239.946 212.482 239.271C213.459 238.596 214.453 238.164 215.461 237.974C216.462 237.79 217.442 237.816 218.404 238.051C219.371 238.295 220.281 238.73 221.133 239.357C221.983 239.998 222.743 240.802 223.413 241.77L223.609 242.052C223.757 242.266 223.864 242.503 223.929 242.762C223.994 243.02 224.045 243.295 224.082 243.586C224.111 243.883 224.161 244.184 224.232 244.489C224.449 245.478 224.511 246.492 224.419 247.53C224.319 248.574 224.022 249.564 223.53 250.498C223.034 251.448 222.294 252.263 221.308 252.943ZM220.427 250.684C221.301 250.081 221.882 249.383 222.169 248.59C222.448 247.803 222.493 246.98 222.304 246.123C222.122 245.275 221.764 244.465 221.23 243.694L221.034 243.412C220.583 242.761 220.079 242.198 219.521 241.722C218.964 241.246 218.373 240.888 217.75 240.647C217.125 240.421 216.483 240.345 215.825 240.419C215.158 240.5 214.495 240.768 213.835 241.223C213.174 241.679 212.693 242.201 212.391 242.789C212.089 243.377 211.938 244.001 211.938 244.659C211.944 245.326 212.071 246.003 212.32 246.692C212.569 247.381 212.919 248.051 213.37 248.701L213.566 248.984C213.969 249.566 214.429 250.065 214.945 250.481C215.461 250.897 216.017 251.197 216.613 251.38C217.201 251.57 217.819 251.611 218.468 251.505C219.114 251.414 219.767 251.14 220.427 250.684Z" fill="white"/>
<path d="M197.792 247.197C198.861 246.706 199.914 246.44 200.95 246.4C201.981 246.374 202.961 246.548 203.891 246.924C204.81 247.304 205.645 247.872 206.393 248.629C207.142 249.386 207.764 250.303 208.26 251.382L208.534 251.979C209.108 253.228 209.435 254.425 209.513 255.57C209.596 256.724 209.477 257.787 209.156 258.76C208.835 259.732 208.353 260.579 207.709 261.298C207.065 262.018 206.312 262.576 205.451 262.971C204.353 263.475 203.319 263.721 202.35 263.707C201.372 263.698 200.47 263.47 199.646 263.023C198.826 262.586 198.082 261.965 197.414 261.16C196.751 260.364 196.171 259.427 195.675 258.348L195.134 257.169L206.607 251.901L207.592 254.045L198.746 258.107L198.837 258.306C199.188 258.97 199.634 259.567 200.176 260.098C200.708 260.633 201.331 260.989 202.043 261.166C202.755 261.344 203.56 261.226 204.46 260.813C205.056 260.539 205.546 260.159 205.931 259.673C206.319 259.197 206.58 258.63 206.714 257.973C206.848 257.315 206.851 256.586 206.723 255.785C206.596 254.984 206.319 254.119 205.893 253.191L205.619 252.595C205.284 251.866 204.87 251.226 204.375 250.673C203.875 250.135 203.321 249.713 202.711 249.409C202.091 249.109 201.439 248.949 200.755 248.931C200.061 248.918 199.354 249.076 198.635 249.406C197.707 249.832 197.008 250.382 196.538 251.057C196.069 251.731 195.738 252.496 195.546 253.352L193.376 252.818C193.476 252.165 193.678 251.493 193.981 250.804C194.283 250.115 194.743 249.457 195.36 248.829C195.968 248.206 196.779 247.662 197.792 247.197Z" fill="white"/>
<path d="M183.622 254.392C182.958 254.569 182.38 254.869 181.888 255.291C181.397 255.713 181.033 256.209 180.796 256.779C180.562 257.359 180.501 257.963 180.613 258.59L177.956 259.299C177.75 258.319 177.838 257.331 178.22 256.334C178.595 255.35 179.198 254.473 180.028 253.701C180.86 252.94 181.855 252.405 183.013 252.096C184.241 251.769 185.37 251.699 186.401 251.888C187.421 252.079 188.334 252.472 189.138 253.066C189.932 253.663 190.61 254.409 191.171 255.305C191.725 256.214 192.147 257.217 192.438 258.315L192.606 258.949C192.898 260.046 193.027 261.122 192.994 262.177C192.954 263.244 192.737 264.234 192.344 265.148C191.94 266.064 191.343 266.86 190.552 267.534C189.751 268.211 188.736 268.714 187.508 269.041C186.23 269.382 185.044 269.419 183.949 269.15C182.856 268.892 181.919 268.387 181.138 267.636C180.349 266.898 179.78 265.971 179.431 264.857L182.088 264.148C182.317 264.809 182.67 265.367 183.147 265.823C183.613 266.28 184.171 266.595 184.82 266.767C185.461 266.952 186.155 266.945 186.899 266.746C187.755 266.518 188.429 266.154 188.922 265.656C189.408 265.171 189.745 264.596 189.935 263.931C190.118 263.278 190.192 262.585 190.159 261.85C190.118 261.127 190.003 260.409 189.813 259.694L189.645 259.06C189.456 258.345 189.198 257.659 188.873 257.002C188.548 256.345 188.144 255.778 187.662 255.303C187.171 254.831 186.593 254.5 185.928 254.31C185.256 254.134 184.487 254.161 183.622 254.392Z" fill="white"/>
<path d="M173.969 254.25L175.325 271.101L172.444 271.341L171.278 256.857L163.524 257.503L164.69 271.988L161.794 272.229L160.437 255.377L173.969 254.25ZM158.635 257.911L158.322 250.52L160.891 250.306L161.294 255.306L163.489 255.123L163.68 257.49L158.635 257.911Z" fill="white"/>
<path d="M149.889 254.048C151.06 254.159 152.104 254.457 153.019 254.942C153.923 255.435 154.681 256.078 155.294 256.868C155.896 257.658 156.329 258.567 156.594 259.597C156.858 260.627 156.932 261.732 156.815 262.914L156.751 263.567C156.616 264.935 156.293 266.134 155.783 267.164C155.272 268.203 154.632 269.063 153.864 269.744C153.095 270.424 152.251 270.914 151.332 271.214C150.412 271.514 149.481 271.619 148.537 271.53C147.334 271.416 146.318 271.11 145.488 270.613C144.647 270.114 143.984 269.465 143.498 268.666C143.01 267.877 142.682 266.967 142.511 265.936C142.34 264.915 142.313 263.814 142.43 262.632L142.557 261.341L155.126 262.534L154.894 264.882L145.203 263.962L145.181 264.18C145.149 264.93 145.233 265.671 145.433 266.401C145.622 267.131 145.98 267.75 146.505 268.261C147.03 268.771 147.786 269.073 148.771 269.166C149.424 269.228 150.039 269.145 150.617 268.918C151.193 268.7 151.705 268.341 152.152 267.839C152.599 267.338 152.97 266.708 153.265 265.952C153.56 265.195 153.757 264.308 153.858 263.292L153.922 262.639C154.001 261.841 153.967 261.079 153.818 260.354C153.659 259.638 153.393 258.995 153.02 258.426C152.637 257.856 152.154 257.392 151.572 257.033C150.979 256.673 150.289 256.456 149.501 256.381C148.485 256.285 147.603 256.411 146.857 256.758C146.111 257.106 145.439 257.602 144.842 258.246L143.236 256.697C143.654 256.182 144.167 255.702 144.776 255.258C145.385 254.814 146.115 254.475 146.965 254.242C147.804 254.007 148.779 253.943 149.889 254.048Z" fill="white"/>
<path d="M127.491 259.147L128.132 256.892L136.739 259.299L136.098 261.553L127.491 259.147ZM133.506 268.437L138.132 252.176L140.916 252.954L136.29 269.216L133.506 268.437ZM123.229 265.564L127.854 249.303L130.653 250.085L126.027 266.347L123.229 265.564Z" fill="white"/>
<path d="M110.089 251.279L111.136 249.182L119.15 253.139L118.103 255.236L110.089 251.279ZM114.282 261.522L121.836 246.397L124.428 247.677L116.874 262.801L114.282 261.522ZM104.713 256.797L112.267 241.672L114.873 242.959L107.319 258.084L104.713 256.797Z" fill="white"/>
<path d="M105.028 246.638L104.811 246.924C104.074 247.895 103.25 248.689 102.337 249.306C101.419 249.931 100.46 250.351 99.4613 250.564C98.4564 250.786 97.4461 250.782 96.4305 250.552C95.4087 250.331 94.4274 249.866 93.4868 249.159C92.5378 248.445 91.8168 247.629 91.3237 246.71C90.816 245.794 90.5318 244.824 90.4712 243.801C90.396 242.78 90.5348 241.744 90.8876 240.692C91.2341 239.65 91.7756 238.643 92.5121 237.672L92.7293 237.385C93.4659 236.414 94.2904 235.62 95.2029 235.003C96.1155 234.386 97.0784 233.97 98.0916 233.755C99.0902 233.541 100.1 233.545 101.122 233.767C102.13 233.99 103.108 234.459 104.057 235.172C105.006 235.886 105.73 236.698 106.229 237.608C106.722 238.527 107.006 239.497 107.082 240.518C107.142 241.541 106.999 242.574 106.653 243.617C106.306 244.66 105.765 245.667 105.028 246.638ZM102.501 245.186L102.718 244.9C103.228 244.228 103.631 243.533 103.926 242.817C104.215 242.109 104.374 241.407 104.404 240.713C104.425 240.012 104.296 239.347 104.014 238.719C103.727 238.098 103.262 237.547 102.621 237.065C101.989 236.589 101.338 236.301 100.668 236.201C99.9837 236.104 99.3103 236.164 98.6477 236.383C97.9852 236.601 97.3513 236.945 96.7462 237.416C96.1265 237.888 95.5617 238.46 95.0518 239.132L94.8346 239.419C94.331 240.083 93.9389 240.772 93.6584 241.486C93.3633 242.203 93.205 242.912 93.1834 243.612C93.1472 244.315 93.2697 244.981 93.5511 245.61C93.8241 246.232 94.2811 246.784 94.9221 247.267C95.5547 247.743 96.2131 248.029 96.8974 248.127C97.5733 248.218 98.2499 248.154 98.927 247.933C99.5896 247.715 100.227 247.366 100.838 246.888C101.443 246.417 101.997 245.85 102.501 245.186Z" fill="white"/>
</svg>
